<?xml version="1.0" standalone="no"?><!DOCTYPE svg PUBLIC "-//W3C//DTD SVG 1.1//EN" "http://www.w3.org/Graphics/SVG/1.1/DTD/svg11.dtd"><svg t="1561906609343" class="icon" viewBox="0 0 1024 1024" version="1.1" xmlns="http://www.w3.org/2000/svg" p-id="3764" xmlns:xlink="http://www.w3.org/1999/xlink" width="200" height="200"><defs><style type="text/css"></style></defs><path d="M845.073 232.027c-1.187-4.75-4.304-10.541-9.353-17.373-5.048-6.834-12.328-15.148-21.83-24.947-9.505-9.804-22.276-21.831-38.314-36.088-14.849-13.07-27.178-23.611-36.978-31.631-9.8-8.02-18.114-14.257-24.946-18.71-6.833-4.458-12.622-7.275-17.374-8.463-4.755-1.187-9.804-1.784-15.147-1.784l-1.784 0 0 109.591c0 4.159 0.741 9.356 2.227 15.593 1.486 6.237 3.713 12.326 6.684 18.268 2.971 5.938 6.683 11.137 11.137 15.59 4.456 4.457 9.948 6.683 16.483 6.683l130.978 0L846.856 244.5C846.857 240.937 846.261 236.782 845.073 232.027z" p-id="3765"></path><path d="M846.857 330.934 715.538 330.934c-25.69 0-49.755-9.917-67.762-27.923-9.953-9.953-18.269-21.536-24.716-34.43-5.441-10.88-9.603-22.284-12.37-33.897-2.828-11.878-4.201-22.472-4.201-32.402l0-109.25L264.164 93.032c-48.061 0-87.021 38.96-87.021 87.021l0 241.643 0 422.252 0 11.962c0 41.454 33.605 75.059 75.058 75.059l11.962 0L580.66 930.969l191.138 0c41.454 0 75.058-33.605 75.058-75.059L846.856 421.696l0 0L846.856 330.934zM738.842 768.908c0 15.012-12.17 27.182-27.181 27.182L312.34 796.09c-15.012 0-27.181-12.17-27.181-27.182l0-0.549c0-15.012 12.17-27.182 27.181-27.182L711.66 741.177c15.012 0 27.181 12.17 27.181 27.182L738.841 768.908zM738.842 636.908c0 15.012-12.17 27.182-27.181 27.182L312.34 664.09c-15.012 0-27.181-12.17-27.181-27.182l0-0.549c0-15.012 12.17-27.182 27.181-27.182L711.66 609.177c15.012 0 27.181 12.17 27.181 27.182L738.841 636.908zM738.842 504.908c0 15.012-12.17 27.182-27.181 27.182L312.34 532.09c-15.012 0-27.181-12.17-27.181-27.182l0-0.549c0-15.012 12.17-27.182 27.181-27.182L711.66 477.177c15.012 0 27.181 12.17 27.181 27.182L738.841 504.908z" p-id="3766"></path></svg>