<?xml version="1.0" standalone="no"?><!DOCTYPE svg PUBLIC "-//W3C//DTD SVG 1.1//EN" "http://www.w3.org/Graphics/SVG/1.1/DTD/svg11.dtd"><svg t="1561908786603" class="icon" viewBox="0 0 1024 1024" version="1.1" xmlns="http://www.w3.org/2000/svg" p-id="8856" xmlns:xlink="http://www.w3.org/1999/xlink" width="200" height="200"><defs><style type="text/css"></style></defs><path d="M697.210184 182.366507L514.526187 454.13832l107.184772-5.333839c3.873383 109.534201 0.888973 248.912502-173.98476 368.923887-4.444866 3.492395-18.858932 11.683648-13.2711 10.604181 342.064196-73.784777 364.098033-321.490816 361.748603-387.338333l109.407205-5.460835-208.400723-253.166874zM337.430022 833.920381L520.241015 562.212065l-107.311768 5.270341c-3.873383-109.470703-0.634981-248.912502 174.238752-368.796891 4.31787-3.492395 18.731936-11.683648 13.2711-10.60418-341.9372 73.657781-365.748983 321.300322-363.272557 387.147838l-108.137243 5.333839 208.400723 253.357369z m678.350066-325.808686a507.857702 507.857702 0 1 1-1015.52491 0 507.857702 507.857702 0 0 1 1015.52491 0z" p-id="8857"></path></svg>