<?xml version="1.0" standalone="no"?><!DOCTYPE svg PUBLIC "-//W3C//DTD SVG 1.1//EN" "http://www.w3.org/Graphics/SVG/1.1/DTD/svg11.dtd"><svg t="1561694733969" class="icon" viewBox="0 0 1024 1024" version="1.1" xmlns="http://www.w3.org/2000/svg" p-id="1909" xmlns:xlink="http://www.w3.org/1999/xlink" width="200" height="200"><defs><style type="text/css"></style></defs><path d="M512 4.096q40.96 4.096 76.8 15.36t69.632 34.816q34.816 22.528 70.656 36.864t73.728 22.528 77.824 11.264T960.512 128v256q0 16.384-2.048 31.744t-3.072 31.744H512V4.096zM0 128q40.96 0 79.872-3.072t76.8-11.264 74.752-22.528T302.08 53.248Q335.872 30.72 371.712 19.456t76.8-15.36v443.392H4.096q-2.048-15.36-3.072-31.744T0 384V128z m448.512 876.544q-70.656-41.984-139.264-92.16t-126.976-112.64T80.896 665.6 16.384 512h432.128v492.544zM512 512h431.104q-20.48 81.92-64.512 153.6t-101.376 134.144-125.952 112.64T512 1004.544V512z" p-id="1910" data-spm-anchor-id="a313x.7781069.0.i4" class="selected"></path></svg>